# xmcd
#
# Track frame offsets:
#	150
#	17245
#	33557
#	49804
#	69286
#	81497
#	98079
#	120443
#	139533
#	155947
#	173401
#	194148
#	210033
#	223814
#
# Disc length: 3156 seconds
#
# Revision: 0
# Processed by: cddbd v1.5PL3 Copyright (c) Steve Scherf et al.
# Submitted via: dBpowerAMP V4.0
#
DISCID=c30c520e
DTITLE=Lee Ann Womack - Greatest Hits
DYEAR=1900
DGENRE=
TTITLE0=Never Again Again
TTITLE1=You've Got To Talk To Me
TTITLE2=The Fool
TTITLE3=A Little Past Little Rock
TTITLE4=(Now You See Me) Now You Don't
TTITLE5=I'll Think Of Reasons Later
TTITLE6=I Hope You Dance
TTITLE7=Ashes By Now
TTITLE8=Why They Call It Falling
TTITLE9=Something Worth Leaving Behind
TTITLE10=Mendocino County Line (with Willie Nelson)
TTITLE11=Does My Ring Burn Your Finger
TTITLE12=The Wrong Girl
TTITLE13=Time For Me To Go
EXTD=
EXTT0=
EXTT1=
EXTT2=
EXTT3=
EXTT4=
EXTT5=
EXTT6=
EXTT7=
EXTT8=
EXTT9=
EXTT10=
EXTT11=
EXTT12=
EXTT13=
PLAYORDER=
